<?xml version="1.0" encoding="UTF-8" standalone="no"?>
<!-- Created with Inkscape (http://www.inkscape.org/) -->

<svg
   xmlns:dc="http://purl.org/dc/elements/1.1/"
   xmlns:cc="http://creativecommons.org/ns#"
   xmlns:rdf="http://www.w3.org/1999/02/22-rdf-syntax-ns#"
   xmlns:svg="http://www.w3.org/2000/svg"
   xmlns="http://www.w3.org/2000/svg"
   xmlns:xlink="http://www.w3.org/1999/xlink"
   xmlns:sodipodi="http://sodipodi.sourceforge.net/DTD/sodipodi-0.dtd"
   xmlns:inkscape="http://www.inkscape.org/namespaces/inkscape"
   width="1400"
   height="958.64624"
   viewBox="0 0 1400 958.64624"
   version="1.1"
   id="svg1122"
   inkscape:version="0.92.3 (2405546, 2018-03-11)"
   sodipodi:docname="kawaii-taco.svg">
  <defs
     id="defs1116">
    <linearGradient
       inkscape:collect="always"
       xlink:href="#linearGradient967"
       id="linearGradient969"
       x1="-784.17938"
       y1="800.67322"
       x2="-1158.8097"
       y2="454.95895"
       gradientUnits="userSpaceOnUse"
       gradientTransform="matrix(2.5713479,-0.44170525,0.65285366,2.6071212,957.57023,-1609.3943)" />
    <linearGradient
       inkscape:collect="always"
       id="linearGradient967">
      <stop
         style="stop-color:#e59427;stop-opacity:1"
         offset="0"
         id="stop963" />
      <stop
         style="stop-color:#e6b16b;stop-opacity:1"
         offset="1"
         id="stop965" />
    </linearGradient>
    <filter
       inkscape:collect="always"
       style="color-interpolation-filters:sRGB"
       id="filter1006"
       x="-0.1113343"
       width="1.2226686"
       y="-0.16208617"
       height="1.3241724">
      <feGaussianBlur
         inkscape:collect="always"
         stdDeviation="0.57298557"
         id="feGaussianBlur1008" />
    </filter>
  </defs>
  <sodipodi:namedview
     id="base"
     pagecolor="#ffffff"
     bordercolor="#666666"
     borderopacity="1.0"
     inkscape:pageopacity="0.0"
     inkscape:pageshadow="2"
     inkscape:zoom="0.175"
     inkscape:cx="822.91846"
     inkscape:cy="481.56983"
     inkscape:document-units="px"
     inkscape:current-layer="layer1"
     showgrid="false"
     units="px"
     inkscape:window-width="1920"
     inkscape:window-height="1017"
     inkscape:window-x="-8"
     inkscape:window-y="-8"
     inkscape:window-maximized="1"
     scale-x="1"
     fit-margin-left="100"
     fit-margin-right="100"
     fit-margin-top="100"
     fit-margin-bottom="100"
     inkscape:snap-global="false" />
  <metadata
     id="metadata1119">
    <rdf:RDF>
      <cc:Work
         rdf:about="">
        <dc:format>image/svg+xml</dc:format>
        <dc:type
           rdf:resource="http://purl.org/dc/dcmitype/StillImage" />
        <dc:title></dc:title>
      </cc:Work>
    </rdf:RDF>
  </metadata>
  <g
     inkscape:label="Layer 1"
     inkscape:groupmode="layer"
     id="layer1"
     transform="translate(2394.3974,-85.443179)">
    <g
       id="g4621"
       transform="matrix(0.61385232,0,0,0.61385232,-885.97622,364.55795)">
      <path
         style="opacity:1;fill:#a0612c;fill-opacity:1;fill-rule:nonzero;stroke:#621d0d;stroke-width:40;stroke-linecap:round;stroke-linejoin:bevel;stroke-miterlimit:4;stroke-dasharray:none;stroke-dashoffset:0;stroke-opacity:1"
         d="m -620.23239,56.131728 a 102.2736,94.319178 43.840548 0 0 -97.16177,83.525682 102.2736,94.319178 43.840548 0 0 -60.03216,86.26259 102.2736,94.319178 43.840548 0 0 15.60257,52.97951 100.91407,91.913322 31.510276 0 0 -14.49299,48.76134 100.91407,91.913322 31.510276 0 0 99.55847,101.07513 100.91407,91.913322 31.510276 0 0 30.56862,-2.6573 100.91407,91.913322 31.510276 0 0 60.54674,24.07034 100.91407,91.913322 31.510276 0 0 77.28921,-31.03128 100.91407,91.913322 31.510276 0 0 51.31531,17.39852 100.91407,91.913322 31.510276 0 0 97.50335,-87.34215 100.91407,91.913322 31.510276 0 0 -52.61707,-86.47321 102.2736,94.319178 43.840548 0 0 5.8679,-33.51156 102.2736,94.319178 43.840548 0 0 -99.5992,-104.84115 102.2736,94.319178 43.840548 0 0 -21.71268,1.02473 102.2736,94.319178 43.840548 0 0 -92.6363,-69.241192 z"
         id="circle918-2"
         inkscape:connector-curvature="0" />
      <ellipse
         ry="165.09663"
         rx="160.26776"
         transform="matrix(0.98556457,-0.16929994,0.24291149,0.97004846,0,0)"
         cy="-99.243057"
         cx="-1974.371"
         id="circle916"
         style="opacity:1;fill:#f73d23;fill-opacity:1;fill-rule:nonzero;stroke:#631d0c;stroke-width:40.0567131;stroke-linecap:round;stroke-linejoin:bevel;stroke-miterlimit:4;stroke-dasharray:none;stroke-dashoffset:0;stroke-opacity:1" />
      <ellipse
         ry="165.09663"
         rx="160.26776"
         transform="matrix(0.98556457,-0.16929994,0.24291149,0.97004846,0,0)"
         style="opacity:1;fill:#f73d23;fill-opacity:1;fill-rule:nonzero;stroke:#621d0d;stroke-width:40.0567131;stroke-linecap:round;stroke-linejoin:bevel;stroke-miterlimit:4;stroke-dasharray:none;stroke-dashoffset:0;stroke-opacity:1"
         id="circle908"
         cx="-680.25806"
         cy="-37.173492" />
      <path
         inkscape:connector-curvature="0"
         id="path898-9"
         d="m -1432.2092,-269.51981 a 169.14478,155.9894 43.840548 0 0 -119.1298,113.80613 169.14478,155.9894 43.840548 0 0 -137.8918,-38.57997 169.14478,155.9894 43.840548 0 0 -122.6591,147.404801 169.14478,155.9894 43.840548 0 0 -55.0691,-0.333866 169.14478,155.9894 43.840548 0 0 -117.8537,187.283415 169.14478,155.9894 43.840548 0 0 198.0616,133.02083 169.14478,155.9894 43.840548 0 0 122.6541,-147.40395 169.14478,155.9894 43.840548 0 0 55.0742,0.33281 169.14478,155.9894 43.840548 0 0 119.1195,-113.804387 169.14478,155.9894 43.840548 0 0 137.9018,38.578281 169.14478,155.9894 43.840548 0 0 101.2818,-68.628777 169.14478,155.9894 43.840548 0 0 167.0446,69.151023 169.14478,155.9894 43.840548 0 0 35.0692,-10.671339 169.14478,155.9894 43.840548 0 0 161.76708,62.319349 169.14478,155.9894 43.840548 0 0 117.85341,-187.283358 169.14478,155.9894 43.840548 0 0 -198.06141,-133.020892 169.14478,155.9894 43.840548 0 0 -35.06908,10.67134 169.14478,155.9894 43.840548 0 0 -161.7669,-62.31935 169.14478,155.9894 43.840548 0 0 -101.2879,68.62444 169.14478,155.9894 43.840548 0 0 -167.0385,-69.14669 z"
         style="opacity:1;fill:#4eae26;fill-opacity:1;fill-rule:nonzero;stroke:#621d0d;stroke-width:40;stroke-linecap:round;stroke-linejoin:round;stroke-miterlimit:4;stroke-dasharray:none;stroke-dashoffset:0;stroke-opacity:1" />
      <path
         inkscape:connector-curvature="0"
         id="circle918"
         d="m -2202.227,408.12701 a 102.2736,94.319178 43.840548 0 0 -47.7048,120.31963 102.2736,94.319178 43.840548 0 0 -14.3539,106.7874 102.2736,94.319178 43.840548 0 0 36.6279,42.84035 99.221673,93.481064 30.158043 0 0 8.7235,51.93618 99.221673,93.481064 30.158043 0 0 130.3241,51.47865 99.221673,93.481064 30.158043 0 0 25.315,-15.73865 99.221673,93.481064 30.158043 0 0 62.9395,-3.70871 99.221673,93.481064 30.158043 0 0 53.3979,-62.55617 99.221673,93.481064 30.158043 0 0 52.0335,-5.95375 99.221673,93.481064 30.158043 0 0 46.3356,-124.04117 99.221673,93.481064 30.158043 0 0 -83.2991,-58.15469 102.2736,94.319178 43.840548 0 0 -9.5395,-33.91954 102.2736,94.319178 43.840548 0 0 -132.0027,-54.98704 102.2736,94.319178 43.840548 0 0 -18.3573,10.37129 102.2736,94.319178 43.840548 0 0 -110.4397,-24.67378 z"
         style="opacity:1;fill:#a0612c;fill-opacity:1;fill-rule:nonzero;stroke:#621d0d;stroke-width:40;stroke-linecap:round;stroke-linejoin:bevel;stroke-miterlimit:4;stroke-dasharray:none;stroke-dashoffset:0;stroke-opacity:1" />
      <path
         style="opacity:1;fill:#fcb93e;fill-opacity:1;fill-rule:nonzero;stroke:#621d0c;stroke-width:40;stroke-linecap:round;stroke-linejoin:bevel;stroke-miterlimit:4;stroke-dasharray:none;stroke-dashoffset:0;stroke-opacity:1"
         d="m -1750.991,189.22356 a 107.04986,118.90756 26.228772 0 0 -146.9917,-10.16991 107.04986,118.90756 26.228772 0 0 -121.3024,21.8355 107.04986,118.90756 26.228772 0 0 -34.7943,55.50253 106.17558,115.27565 16.361767 0 0 -53.8569,27.93842 106.17558,115.27565 16.361767 0 0 -13.5692,161.87428 106.17558,115.27565 16.361767 0 0 25.4689,22.36546 106.17558,115.27565 16.361767 0 0 24.6435,68.0994 106.17558,115.27565 16.361767 0 0 85.78,36.82179 106.17558,115.27565 16.361767 0 0 23.5266,55.28081 106.17558,115.27565 16.361767 0 0 150.6071,7.34731 106.17558,115.27565 16.361767 0 0 36.246,-112.3713 107.04986,118.90756 26.228772 0 0 33.9168,-22.48358 107.04986,118.90756 26.228772 0 0 16.8509,-164.96291 107.04986,118.90756 26.228772 0 0 -17.3316,-16.58578 107.04986,118.90756 26.228772 0 0 -9.1937,-130.49202 z"
         id="path971-2"
         inkscape:connector-curvature="0" />
      <path
         inkscape:connector-curvature="0"
         d="m -1941.3791,726.87689 c 11.6956,22.46608 7.8696,64.32042 -18.1461,78.27046 -26.0157,13.95014 -51.739,16.50768 -82.3071,12.27746 -30.5678,-4.23016 -76.4469,-38.23866 -80.9996,-56.41902 M -405.85982,451.92273 c -63.9264,-255.2854 -269.19476,-466.064972 -538.48286,-552.94009 -269.28782,-86.87522 -561.68402,-36.64751 -767.04572,131.762825 -205.3609,168.410335 -288.7108,455.860305 -224.7844,711.145595 m -196.7625,27.4275 -2.917,10.50814 c -25.1692,90.66821 98.7171,154.89375 170.0916,142.63306 L -485.90865,668.25129 c 71.3745,-12.26069 110.43625,-95.61717 87.57919,-186.89566 l -7.1845,-28.69089"
         style="opacity:1;fill:url(#linearGradient969);fill-opacity:1;fill-rule:nonzero;stroke:#621d0c;stroke-width:40;stroke-linecap:round;stroke-linejoin:bevel;stroke-miterlimit:4;stroke-dasharray:none;stroke-dashoffset:0;stroke-opacity:1"
         id="path841"
         sodipodi:nodetypes="ccsccssccssssc" />
      <ellipse
         ry="21.173521"
         rx="20.554222"
         transform="matrix(0.98556457,-0.16929994,0.24291149,0.97004846,0,0)"
         cy="298.76205"
         cx="-1815.5953"
         id="path850-8"
         style="opacity:1;fill:#621d0c;fill-opacity:1;fill-rule:nonzero;stroke:#621d0c;stroke-width:27.61342239;stroke-linecap:round;stroke-linejoin:bevel;stroke-miterlimit:4;stroke-dasharray:none;stroke-dashoffset:0;stroke-opacity:1" />
      <ellipse
         ry="21.173521"
         rx="20.554222"
         transform="matrix(0.98556457,-0.16929994,0.24291149,0.97004846,0,0)"
         style="opacity:1;fill:#621d0c;fill-opacity:1;fill-rule:nonzero;stroke:#621d0c;stroke-width:27.61342239;stroke-linecap:round;stroke-linejoin:bevel;stroke-miterlimit:4;stroke-dasharray:none;stroke-dashoffset:0;stroke-opacity:1"
         id="circle852"
         cx="-1812.9597"
         cy="445.36685" />
      <ellipse
         ry="21.173521"
         rx="20.554222"
         transform="matrix(0.98556457,-0.16929994,0.24291149,0.97004846,0,0)"
         cy="372.06445"
         cx="-1884.1182"
         id="circle854"
         style="opacity:1;fill:#621d0c;fill-opacity:1;fill-rule:nonzero;stroke:#621d0c;stroke-width:27.61342239;stroke-linecap:round;stroke-linejoin:bevel;stroke-miterlimit:4;stroke-dasharray:none;stroke-dashoffset:0;stroke-opacity:1" />
      <ellipse
         ry="21.173521"
         rx="20.554222"
         transform="matrix(0.98556457,-0.16929994,0.24291149,0.97004846,0,0)"
         style="opacity:1;fill:#621d0c;fill-opacity:1;fill-rule:nonzero;stroke:#621d0c;stroke-width:27.61342239;stroke-linecap:round;stroke-linejoin:bevel;stroke-miterlimit:4;stroke-dasharray:none;stroke-dashoffset:0;stroke-opacity:1"
         id="circle856"
         cx="-1744.4368"
         cy="369.34961" />
      <ellipse
         ry="21.173521"
         rx="20.554222"
         transform="matrix(0.98556457,-0.16929994,0.24291149,0.97004846,0,0)"
         cy="296.04703"
         cx="-713.95697"
         id="circle858"
         style="opacity:1;fill:#621d0c;fill-opacity:1;fill-rule:nonzero;stroke:#621d0c;stroke-width:27.61342239;stroke-linecap:round;stroke-linejoin:bevel;stroke-miterlimit:4;stroke-dasharray:none;stroke-dashoffset:0;stroke-opacity:1" />
      <ellipse
         ry="21.173521"
         rx="20.554222"
         transform="matrix(0.98556457,-0.16929994,0.24291149,0.97004846,0,0)"
         style="opacity:1;fill:#621d0c;fill-opacity:1;fill-rule:nonzero;stroke:#621d0c;stroke-width:27.61342239;stroke-linecap:round;stroke-linejoin:bevel;stroke-miterlimit:4;stroke-dasharray:none;stroke-dashoffset:0;stroke-opacity:1"
         id="circle860"
         cx="-713.95697"
         cy="442.65201" />
      <ellipse
         ry="21.173521"
         rx="20.554222"
         transform="matrix(0.98556457,-0.16929994,0.24291149,0.97004846,0,0)"
         cy="374.7793"
         cx="-642.79822"
         id="circle862"
         style="opacity:1;fill:#621d0c;fill-opacity:1;fill-rule:nonzero;stroke:#621d0c;stroke-width:27.61342239;stroke-linecap:round;stroke-linejoin:bevel;stroke-miterlimit:4;stroke-dasharray:none;stroke-dashoffset:0;stroke-opacity:1" />
      <ellipse
         ry="21.173521"
         rx="20.554222"
         transform="matrix(0.98556457,-0.16929994,0.24291149,0.97004846,0,0)"
         style="opacity:1;fill:#621d0c;fill-opacity:1;fill-rule:nonzero;stroke:#621d0c;stroke-width:27.61342239;stroke-linecap:round;stroke-linejoin:bevel;stroke-miterlimit:4;stroke-dasharray:none;stroke-dashoffset:0;stroke-opacity:1"
         id="circle864"
         cx="-782.47949"
         cy="372.06461" />
      <ellipse
         ry="21.173521"
         rx="20.554222"
         transform="matrix(0.98556457,-0.16929994,0.24291149,0.97004846,0,0)"
         cy="372.06461"
         cx="-782.47949"
         id="circle866"
         style="opacity:1;fill:#621d0c;fill-opacity:1;fill-rule:nonzero;stroke:#621d0c;stroke-width:27.61342239;stroke-linecap:round;stroke-linejoin:bevel;stroke-miterlimit:4;stroke-dasharray:none;stroke-dashoffset:0;stroke-opacity:1" />
      <g
         transform="translate(16)"
         id="g10460">
        <ellipse
           transform="matrix(12.672431,-0.42081554,0.42081554,12.672431,-4283.0959,-2804.2336)"
           ry="3.9512198"
           rx="6.3658538"
           cy="269.3125"
           cx="203.48627"
           id="ellipse3693"
           style="opacity:1;fill:#ffaaaa;fill-opacity:1;fill-rule:nonzero;stroke:none;stroke-width:1.99062216;stroke-linecap:round;stroke-linejoin:round;stroke-miterlimit:4;stroke-dasharray:none;stroke-dashoffset:0;stroke-opacity:1;filter:url(#filter1006)" />
        <circle
           transform="rotate(0.59870224)"
           r="77.932014"
           cy="448.77475"
           cx="-1590.3535"
           id="circle3695"
           style="opacity:1;fill:#000000;fill-opacity:1;fill-rule:nonzero;stroke:none;stroke-width:33.81177902;stroke-linecap:round;stroke-linejoin:round;stroke-miterlimit:4;stroke-dasharray:none;stroke-dashoffset:0;stroke-opacity:1" />
        <circle
           transform="rotate(0.59870224)"
           r="22.266291"
           cy="415.37531"
           cx="-1623.7527"
           id="circle3697"
           style="opacity:1;fill:#ffffff;fill-opacity:1;fill-rule:nonzero;stroke:none;stroke-width:10.44249916;stroke-linecap:round;stroke-linejoin:round;stroke-miterlimit:4;stroke-dasharray:none;stroke-dashoffset:0;stroke-opacity:1" />
        <ellipse
           style="opacity:1;fill:#ffaaaa;fill-opacity:1;fill-rule:nonzero;stroke:none;stroke-width:1.99062216;stroke-linecap:round;stroke-linejoin:round;stroke-miterlimit:4;stroke-dasharray:none;stroke-dashoffset:0;stroke-opacity:1;filter:url(#filter1006)"
           id="ellipse3701"
           cx="203.48627"
           cy="269.3125"
           rx="6.3658538"
           ry="3.9512198"
           transform="matrix(12.623851,-1.1857357,1.1857357,12.623851,-3722.0308,-2768.9243)" />
        <circle
           style="opacity:1;fill:#000000;fill-opacity:1;fill-rule:nonzero;stroke:none;stroke-width:33.81177902;stroke-linecap:round;stroke-linejoin:round;stroke-miterlimit:4;stroke-dasharray:none;stroke-dashoffset:0;stroke-opacity:1"
           id="circle3703"
           cx="-862.77997"
           cy="325.98471"
           r="77.932014"
           transform="rotate(0.59870224)" />
        <circle
           style="opacity:1;fill:#ffffff;fill-opacity:1;fill-rule:nonzero;stroke:none;stroke-width:10.44249916;stroke-linecap:round;stroke-linejoin:round;stroke-miterlimit:4;stroke-dasharray:none;stroke-dashoffset:0;stroke-opacity:1"
           id="circle3705"
           cx="-896.1792"
           cy="292.58527"
           r="22.266291"
           transform="rotate(0.59870224)" />
        <path
           style="opacity:1;fill:none;fill-opacity:1;fill-rule:nonzero;stroke:#000000;stroke-width:46;stroke-linecap:round;stroke-linejoin:bevel;stroke-miterlimit:4;stroke-dasharray:none;stroke-dashoffset:0;stroke-opacity:1"
           d="m -1136.0208,373.97789 a 175.89667,132.92067 70.106368 0 1 -173.3406,33.89069"
           id="path872-5"
           inkscape:connector-curvature="0" />
      </g>
      <path
         sodipodi:nodetypes="scccccccccss"
         inkscape:connector-curvature="0"
         id="path1026"
         d="m -2084.2884,616.44157 c -32.725,0.11014 -63.96,9.6102 -85.5984,25.22049 -49.0801,35.40698 -28.0872,122.67841 23.9446,129.90047 8.0872,1.12254 34.7601,-4.39045 49.2288,-1.23431 10.5388,13.45457 32.4389,24.62207 57.7981,29.47312 25.1261,4.77339 50.0404,2.66123 65.903,-5.58701 3.1988,-0.0526 5.3113,-0.50316 6.0743,-1.44416 1.3716,-1.69156 2.6366,-3.57338 3.8062,-5.60652 2.9978,-3.10115 4.9748,-6.54634 5.8652,-10.22069 0.4283,-1.85269 0.5794,-3.75464 0.4519,-5.6898 10.6166,-40.19689 -8.5506,-134.71932 -53.1665,-161.37308 -24.5528,-14.66802 -47.1921,6.47022 -74.3072,6.56149 z"
         style="opacity:1;fill:#a0612c;fill-opacity:1;fill-rule:nonzero;stroke:none;stroke-width:218.52412415;stroke-linecap:round;stroke-linejoin:round;stroke-miterlimit:4;stroke-dasharray:none;stroke-dashoffset:0;stroke-opacity:1" />
      <path
         style="opacity:1;fill:none;fill-opacity:1;fill-rule:nonzero;stroke:#621d0c;stroke-width:29.58035278;stroke-linecap:round;stroke-linejoin:bevel;stroke-miterlimit:4;stroke-dasharray:none;stroke-dashoffset:0;stroke-opacity:1"
         d="m -2017.7277,725.47243 a 52.267845,82.637499 74.553853 0 1 -30.3417,-62.83457"
         id="path3709"
         inkscape:connector-curvature="0" />
      <path
         inkscape:connector-curvature="0"
         id="path3711"
         d="m -2185.1858,606.08939 a 82.637499,52.267845 20.80551 0 1 12.6878,-68.61356"
         style="opacity:1;fill:none;fill-opacity:1;fill-rule:nonzero;stroke:#621d0c;stroke-width:29.58035278;stroke-linecap:round;stroke-linejoin:bevel;stroke-miterlimit:4;stroke-dasharray:none;stroke-dashoffset:0;stroke-opacity:1" />
      <path
         inkscape:connector-curvature="0"
         id="path3713"
         d="m -2105.689,709.72079 a 52.267845,82.637499 74.553853 0 1 -30.3417,-62.83457"
         style="opacity:1;fill:none;fill-opacity:1;fill-rule:nonzero;stroke:#621d0c;stroke-width:29.58035278;stroke-linecap:round;stroke-linejoin:bevel;stroke-miterlimit:4;stroke-dasharray:none;stroke-dashoffset:0;stroke-opacity:1" />
    </g>
  </g>
</svg>
